<svg xmlns="http://www.w3.org/2000/svg" fill-rule="evenodd" viewBox="0 0 92 92" shape-rendering="geometricPrecision" text-rendering="geometricPrecision" image-rendering="optimizeQuality" clip-rule="evenodd"><defs><style><![CDATA[.fil0 {fill:#C1272D}]]></style></defs><path id="Layer_x0020_1" d="M70 50v2c-2 1-3 1-5 0-2 0-5 0-6-2-2-1 1-2 1-2 2 0 4 0 6 1 1 0 3 0 4 1zm22 36c-1 1 0 2-1 3s-3 1-4 1H74c-1 0-2 1-3 1h-2c0-1-1-2-2-2-1 1-2 2-3 1-2-1-4 0-6 1-3 0-5-1-7-1-2 1-4 1-5 1-2-1-2-2-1-3 2-2 5-3 8-2h14c2 0 3-1 4-2s1 0 1 0c2 2 3-1 6 0h1v1c0 1 2 1 2 0v-1c2 1 4 2 5 0 1-1 1-3 2-5 0-4 0-9-1-14 0-4-1-8 0-13V39v-7c0-2 1-4 1-6-1-2-2-4-2-5v-6c1-1 1-2 1-3V9 8c1-1 1-2 0-2-3 0-6-2-9 0v2c1 1 2 1 2 1 1 0 2-1 3 0 1 0 2 0 1 1 0 1 0 1-1 2v18h1c0 3 1 5 1 8l-1 3v10c0 5-1 11 0 16 0 3-1 5-1 7v8c-6 1-11 1-16 1h-5l-1 1c-1-1-2-1-2-1-1 0-2-1-3-1-2 0-5 0-7 1h-4c-1-1-2-2-4-1-1 0-1 1-2 1h-2c-1-1-2-1-3-1v1c-8-1-16 0-24 0l-1 1v-1c-1-1-1-5-1-6 0-7-1-14-1-21 0-4 0-7 1-11V34c0-8 1-16 1-24 2 0 4-1 7 0h3c4 0 8 0 12-1h5c1 0 1-1 2-1 2 1 4 1 6 2 1 0 2-2 3-2 2 1 4 1 6 1h23c0-1 1-1 1-1V7c-1 0-1 0-1-1H60c-3 1-5 1-8 1-2-1-5-1-7 0-3-2-6 1-9 0-2-1-4-1-6-1-2 1-4 1-6 1H9C8 7 7 6 7 7 6 7 5 7 5 8c1 0 0 1 0 2v2c0 3-1 5-1 8-1 1-1 3-1 5l2 2v22c0 5-1 10 0 16 0 5 1 10 0 15 0 1-2 4 0 6h3c3 1 7 0 10 0h6c1 0 2 1 3 1 0 0 1 0 1-1 1 0 2-1 4 0h7l-1 1c-1 0-1 2-1 4-1 0-2 0-2-1-1-1-3-2-3 1h-1l-2-1c-1-1-2-2-3-1-1 0-2 0-2 1-2 1-3 3-5 2 0 0-2-2-2-1l-1 1h-6c0-1 0-2-1-1H8c0 1-1 1-1 1-1 1-5 0-5-1 0 0-1-1-1-2v-5c0-4 0-8-1-12v-7c0-1 0-3 1-5 1-1 0-1-1-2v-1-5c0-1 1-2 1-3s-1-2-1-3 0-1 1-1v-2c-1-2 0-4 0-6v-6c0-2-1-4-1-7 0-2 0-4 1-6V7v1S0 4 2 2c3-1 7-1 11-1h13c2 0 5 0 7-1h5c3 0 5 1 7 1h33c1-1 2-1 4 0l5 1h2c1 1 0 2 1 3 0 2 1 2 1 4 1 2 1 3 0 5 0 1-1 2 0 3 0 1 1 2 1 3v10c-1 1-1 2-1 4v2c1 3-2 5-2 8-1 2 1 1 2 2s0 2 0 2c0 2 1 3 0 5v6c1 1 1 2 0 3 0 2-1 5 1 5v2c-1 1 0 1 0 2v3c-1 1 0 3 0 4 0 2-1 2 0 4v2c-1 1-1 2 0 2zM72 36c-1-4-1-9-3-13 0-2-1-3-3-4-3 0-2 2-1 4 0 3 1 7 1 10 1 2 2 5-1 3-5-3-7-9-9-14-1-3-4-8-5-9s-6-2-7-1 4 9 5 11c2 3 4 7 6 10 1 2 4 4 0 5-3 1-5-1-8-3-2-1-4-1-7-1-6-1-13 0-18 4-3 2-5 5-6 8 0 1-3 7-2 7-2 0-1-3-3-1-1 2 1 6 2 8 1 3 3 7 4 11 1 3 2 3 5 4 5 0 9-1 14-2 0 0-8-5 7 1 4 1 7 1 11 1 3-1 3-5 4-7 0-1 3-5 4-5 1-1 2 1 4 1 6 1 8-5 7-10-1-4 0-9 0-12 1-2-1-4-1-6zM43 90c-1 0-2 0-2-1l-1-1c0-1 1-2 2-2l1 1c0 1-1 1-1 2 1 0 1 1 1 1s0 1 0 0z" class="fil0"/></svg>
